<?xml version="1.0" encoding="utf-8"?>
<!-- Generator: Adobe Illustrator 23.0.6, SVG Export Plug-In . SVG Version: 6.00 Build 0)  -->
<svg version="1.1" id="Layer_1" xmlns="http://www.w3.org/2000/svg" xmlns:xlink="http://www.w3.org/1999/xlink" x="0px" y="0px"
	 viewBox="0 0 1000 1000" style="enable-background:new 0 0 1000 1000;" xml:space="preserve">
<style type="text/css">
	.st0{fill:url(#SVGID_1_);stroke:#4E0984;stroke-width:4;stroke-linecap:round;stroke-linejoin:round;stroke-miterlimit:10;}
	.st1{fill:url(#SVGID_2_);stroke:#4E0984;stroke-width:4;stroke-linecap:round;stroke-linejoin:round;stroke-miterlimit:10;}
	.st2{fill:url(#SVGID_3_);stroke:#4E0984;stroke-width:4;stroke-linecap:round;stroke-linejoin:round;stroke-miterlimit:10;}
	.st3{fill:url(#SVGID_4_);stroke:#4E0984;stroke-width:4;stroke-linecap:round;stroke-linejoin:round;stroke-miterlimit:10;}
	.st4{fill:url(#SVGID_5_);stroke:#000000;stroke-width:4;stroke-linecap:round;stroke-linejoin:round;stroke-miterlimit:10;}
	.st5{fill:url(#SVGID_6_);stroke:#4E0984;stroke-width:4;stroke-linecap:round;stroke-linejoin:round;stroke-miterlimit:10;}
	.st6{fill:url(#SVGID_7_);stroke:#4E0984;stroke-width:4;stroke-linecap:round;stroke-linejoin:round;stroke-miterlimit:10;}
	.st7{fill:url(#SVGID_8_);stroke:#4E0984;stroke-width:4;stroke-linecap:round;stroke-linejoin:round;stroke-miterlimit:10;}
	.st8{fill:url(#SVGID_9_);stroke:#4E0984;stroke-width:4;stroke-linecap:round;stroke-linejoin:round;stroke-miterlimit:10;}
	.st9{fill:url(#SVGID_10_);stroke:#4E0984;stroke-width:4;stroke-linecap:round;stroke-linejoin:round;stroke-miterlimit:10;}
</style>
<g>
	
		<linearGradient id="SVGID_1_" gradientUnits="userSpaceOnUse" x1="500.145" y1="515.27" x2="500.145" y2="810.17" gradientTransform="matrix(1 0 0 -1 0 1000)">
		<stop  offset="0.3493" style="stop-color:#CAFFBF"/>
		<stop  offset="1" style="stop-color:#FDFFB6"/>
	</linearGradient>
	<polygon class="st0" points="581.11,437.87 469.29,373.31 648.51,398.98 754.7,337.28 499.31,189.83 418.95,237.09 559.84,318.43 
		418.95,301.48 418.95,301.48 326.35,290.35 245.59,337.28 500.97,484.73 	"/>
	
		<linearGradient id="SVGID_2_" gradientUnits="userSpaceOnUse" x1="558.9" y1="562.13" x2="558.9" y2="626.69" gradientTransform="matrix(1 0 0 -1 0 1000)">
		<stop  offset="0.3349" style="stop-color:#BDB2FF"/>
		<stop  offset="1" style="stop-color:#FFC6FF"/>
	</linearGradient>
	<polygon class="st1" points="648.51,398.98 469.29,373.31 581.11,437.87 	"/>
	
		<linearGradient id="SVGID_3_" gradientUnits="userSpaceOnUse" x1="489.395" y1="681.57" x2="489.395" y2="762.91" gradientTransform="matrix(1 0 0 -1 0 1000)">
		<stop  offset="0.3349" style="stop-color:#BDB2FF"/>
		<stop  offset="1" style="stop-color:#FFC6FF"/>
	</linearGradient>
	<polygon class="st2" points="559.84,318.43 418.95,237.09 418.95,301.48 	"/>
	
		<linearGradient id="SVGID_4_" gradientUnits="userSpaceOnUse" x1="287.725" y1="389.27" x2="287.725" y2="487.92" gradientTransform="matrix(1 0 0 -1 0 1000)">
		<stop  offset="0.3397" style="stop-color:#CAFFBF"/>
		<stop  offset="1" style="stop-color:#FDFFB6"/>
	</linearGradient>
	<polygon class="st3" points="330.09,610.73 330.37,512.08 245.08,561.65 	"/>
	
		<linearGradient id="SVGID_5_" gradientUnits="userSpaceOnUse" x1="457.895" y1="339.11" x2="457.895" y2="450.89" gradientTransform="matrix(1 0 0 -1 0 1000)">
		<stop  offset="0.3397" style="stop-color:#A0C4FF"/>
		<stop  offset="1" style="stop-color:#9BF6FF"/>
	</linearGradient>
	<polygon class="st4" points="415.55,549.11 415.23,660.89 500.52,611.32 500.56,598.51 	"/>
	
		<linearGradient id="SVGID_6_" gradientUnits="userSpaceOnUse" x1="457.875" y1="290.03" x2="457.875" y2="388.68" gradientTransform="matrix(1 0 0 -1 0 1000)">
		<stop  offset="0.3301" style="stop-color:#CAFFBF"/>
		<stop  offset="1" style="stop-color:#FDFFB6"/>
	</linearGradient>
	<polygon class="st5" points="500.24,709.97 500.52,611.32 415.23,660.89 	"/>
	
		<linearGradient id="SVGID_7_" gradientUnits="userSpaceOnUse" x1="630.92" y1="387.27" x2="630.92" y2="498.58" gradientTransform="matrix(1 0 0 -1 0 1000)">
		<stop  offset="0.3397" style="stop-color:#BDB2FF"/>
		<stop  offset="1" style="stop-color:#FFC6FF"/>
	</linearGradient>
	<polygon class="st6" points="588.97,564.45 672.59,612.73 672.91,501.42 588.93,550.23 	"/>
	
		<linearGradient id="SVGID_8_" gradientUnits="userSpaceOnUse" x1="630.78" y1="338.83" x2="630.78" y2="435.55" gradientTransform="matrix(1 0 0 -1 0 1000)">
		<stop  offset="0" style="stop-color:#CAFFBF"/>
		<stop  offset="0.3421" style="stop-color:#CCFFBF"/>
		<stop  offset="1" style="stop-color:#FDFFB6"/>
	</linearGradient>
	<polygon class="st7" points="589.24,661.17 672.59,612.73 588.97,564.45 	"/>
	
		<linearGradient id="SVGID_9_" gradientUnits="userSpaceOnUse" x1="627.385" y1="189.22" x2="627.385" y2="662.73" gradientTransform="matrix(1 0 0 -1 0 1000)">
		<stop  offset="0.3349" style="stop-color:#A0C4FF"/>
		<stop  offset="1" style="stop-color:#9BF6FF"/>
	</linearGradient>
	<path class="st8" d="M648.51,398.98l0.33,0.04l-45.41,26.16l-102.45,59.54l-0.92,326.06l253.73-147.45l0.92-326.06L648.51,398.98z
		 M672.59,612.73l-83.35,48.44l-0.27-96.72l-0.04-14.22l83.98-48.8L672.59,612.73z"/>
</g>
<g>
	<linearGradient id="SVGID_10_" gradientUnits="userSpaceOnUse" x1="372.5" y1="811.26" x2="372.5" y2="337.74">
		<stop  offset="0.3349" style="stop-color:#BDB2FF"/>
		<stop  offset="1" style="stop-color:#FFC6FF"/>
	</linearGradient>
	<polygon class="st9" points="414.91,660.35 415.23,549.57 500.24,598.97 500.66,485.2 245.28,337.74 244.96,451.25 330.09,500.73 
		330.05,512.54 329.77,611.19 244.76,562.11 244.63,562.18 244.34,663.81 499.73,811.26 499.92,710.43 	"/>
</g>
</svg>
